<svg id="elVXP8tHMcF1"
    xmlns="http://www.w3.org/2000/svg"
    xmlns:xlink="http://www.w3.org/1999/xlink" viewBox="0 0 900 1141" shape-rendering="geometricPrecision" text-rendering="geometricPrecision">

    <g id="rays" fill="#d8003c" stroke-width="0">
        <path d="M 449.80 438.96 L 196.22 730.59 l -39.03 -39.64 L 449.80 438.96 Z" />
        <path d="M 449.90 438.96 L 129.78 655.05 l -26.77 -47.40 L 449.90 438.96 Z" />
        <path d="M 449.90 438.96 L 85.41 564.83 l -13.68 -52.68 l 378.18 -73.18 Z" />
        <path d="M 449.90 438.96 L 65.76 466.12 l .28 -54.09 l 383.87 26.92 Z" />
        <path d="M 449.90 438.96 L 72.42 366.01 l 14.12 -52.10 L 449.90 438.96 Z" />
        <path d="M 449.90 438.96 L 104.35 271.33 l 27.31 -46.98 L 449.90 438.96 Z" />
        <path d="M 449.90 438.96 L 159.73 187.83 l 38.76 -38.30 L 449.90 438.96 Z" />
        <path d="M 449.90 438.96 L 234.47 121.90 l 47.44 -27.43 L 449.90 438.96 Z" />
        <path d="M 449.90 438.96 L 324.56 76.79 l 52.43 -13.65 l 72.91 375.81 Z" />
        <path d="M 449.90 438.96 L 422.32 56.80 l 54.55 0.14 -26.97 382.02 Z" />
        <path d="M 449.90 438.96 l 72.91 -375.99 l 52.09 13.67 L 449.90 438.96 Z" />
        <path d="M 449.90 438.96 L 617.74 94.51 l 47.06 26.84 -214.90 317.61 Z" />
        <path d="M 449.90 438.96 l 251.44 -289.41 l 38.69 37.98 L 449.90 438.96 Z" />
        <path d="M 449.90 438.96 l 318.15 -214.86 L 795.60 271.38 L 449.90 438.96 Z" />
        <path d="M 449.90 438.96 L 813.38 313.80 l 14.29 52.36 -377.77 72.80 Z" />
        <path d="M 449.90 438.96 L 833.95 412.37 l .19 54.02 -384.25 -27.44 Z" />
        <path d="M 449.90 438.96 L 828.23 512.60 l -13.64 52.18 L 449.90 438.96 Z" />
        <path d="M 449.90 438.96 L 797.26 608.14 l -26.86 47.41 L 449.90 438.96 Z" />
        <path d="M 449.90 438.96 L 741.28 692.93 l -38.41 38.47 L 449.90 438.96 Z" />
    </g>

    <circle id="ring" cx="450" cy="441" r="390.5" stroke="#D8003C" stroke-width="17" fill="none" transform="rotate(123, 450, 441)" stroke-dasharray="2005 448"/>

    <path id="person-outline" fill="none" stroke="#ffffff" stroke-width="15"
        d="M 231.67 784.96
            q 18.36 -48.98 25.61 -79.63
            c 7.25 -30.65 11.35 -52.49 16.21 -67.37
            s 13.49 -38.31 23.03 -54.06
            s 20.26 -32.86 34.53 -36.58
            s 25.13 -6.00 34.86 -8.87
            s 21.32 -3.93 26.56 -7.67
            s 7.27 -13.41 6.81 -19.50
            s 1.24 -26.20 -4.03 -28.83 -14.99 -4.67 -17.69 -10.20 -6.90 -17.70 -4.25 -23.70
            s 2.53 -6.63 5.99 -8.94
            q 3.46 -2.31 5.08 -3.05 -.50 -9.50.17 -17.83
            c .68 -8.33 2.56 -18.17 8.33 -27.16
            s 19.76 -20.64 29.67 -25.24
            s 29.02 -6.13 41.82 -2.97
            s 27.86 13.06 37.14 25.26
            s 8.73 17.78 9.96 27.44
            q 1.23 9.67.74 21.09
            q 4.56 1.87 8.40 6.48
            c 3.84 4.60 2.92 7.71 1.92 14.51
            s -2.78 14.41 -7.13 18.29 -9.05 3.77 -11.40 5.04 -5.83 1.19 -6.09 8.13 -1.35 24.77 -.43 30.62
            s 2.33 6.80 7.10 10.34
            s 34.40 9.09 48.27 12.81
            s 24.04 5.10 36.54 23.54
            s 18.96 33.14 25.38 47.54
            s 20.94 83.55 29.51 111.33
            s 13.35 41.84 15.90 48.34
            q 2.55 6.50 4.35 11.45" />

    <path id="person" fill="#d8003c" stroke-width="0"
        d="M 499.1 535.3
            L 345.7 733
            c 0 0 -21.49 78.4 -30.7 112
            q 35.66 -1.55 63.25 8.47
            c 27.59 10.01 51.62 20.81 61.53 23.25
            q 9.90 2.45 8.11 2.19
            c 0 0 6.00 -1.79 9.00 -2.56
            q 10.42 -2.45 27.91 -10.68
            c 17.49 -8.23 26.00 -10.84 39.28 -14.56
            s 45.28 -6.45 45.28 -6.45
            q 0 0 10.67 -.25
            L 551.20 734.58
            c 0 0 -16.45 63.75 -23.50 91.08
            q -19.82 10.86 -49.72 12.81
            c -29.91 1.95 -40.51 1.27 -56.03.25
            s -35.09 -4.58 -44.12 -7.76
            q -9.03 -3.18 -7.50 -3.94
            L 519.69 542.92
            c 0 0 14.67 2.95 20.95 4.21
            q 13.21 3.30 18.10 4.93
            c 4.90 1.63 16.83 3.47 26.11 19.99
            s 23.98 33.58 38.35 96.06
            c 8.25 35.87 17.45 70.03 24.29 89.76
            s 16.93 47.40 25.85 62.26
            s 14.57 29.43 27.35 38.05
            s 11.15 7.73 16.75 11.53
            s 9.23 5.00 13.03 11.15
            q 3.81 5.15 3.09 13.49
            l -.22 5.82
            c 0 0 3.91 4.24 5.59 6.05
            q 9.25 11.62 11.51 17.67
            c 2.25 6.05 1.53 21.72 -3.34 28.67
            s -15.44 23.14 -43.06 35.37 -51.04 16.53 -66.38 16.05 -37.87 -5.41 -47.28 -7.65 -30.52 -8.39 -54.68 -12.79 -68.99 -8.13 -110.34 -6.55 -61.99 6.02 -81.88 9.74 -53.38 15.85 -75.22 16.18 -20.93 1.19 -38.48 -2.67 -43.18 -12.29 -57.92 -23.70 -20.59 -19.66 -23.55 -25.80 -5.37 -14.39 -3.03 -23.76
            s 5.25 -12.42 7.83 -16.05
            q 2.58 -3.64 9.57 -10.24
            c 0 0 .21 -5.05.30 -7.21
            q .43 -7.49 1.90 -10.67
            c 1.47 -3.18 1.66 -3.37 3.26 -5.08
            s 6.93 -5.17 8.89 -6.48
            s 12.40 -8.54 14.91 -10.45
            s 8.29 -5.91 10.99 -8.72
            s 9.45 -13.13 12.21 -17.94
            s 26.85 -55.30 32.40 -72.67
            s 17.24 -58.36 20.68 -74.39
            s 7.57 -32.38 10.41 -43.72
            s 8.92 -28.22 16.54 -43.20
            s 11.00 -20.22 16.04 -27.78
            s 7.09 -10.88 11.46 -14.05
            s 11.82 -5.42 17.04 -7.03
            s 21.66 -5.50 27.43 -6.57
            s 13.59 -2.55 19.44 -4.45
            s 12.56 -5.44 15.92 -11.66
            s 3.39 -12.74 3.24 -17.17 -.75 -15.05 -1.43 -20.27 -.23 -8.37 -2.06 -11.26 -7.67 -4.50 -9.18 -5.07 -5.89 -2.34 -6.69 -3.04 -2.88 -2.21 -3.90 -4.16 -.84 -1.92 -1.48 -4.12 -1.38 -7.35 -1.51 -9.20 -.28 -4.64 1.90 -7.44
            q 2.19 -2.80 9.82 -6.10
            l -.79 -8.69
            q -.28 -17.09 4.16 -29.67
            c 4.45 -12.57 20.54 -24.74 30.35 -29.41
            s 19.85 -5.76 33.14 -3.99
            s 25.68 9.46 34.79 19.91
            s 10.76 18.04 11.62 21.56.95 21.81.95 22.96
            q 0 1.15.02 7.60
            l 4.18 2.13
            q 2.61 1.25 4.34 2.79
            c 1.74 1.54 2.65 3.95 2.70 6.07
            s -1.02 10.08 -2.53 14.16 -2.93 5.39 -4.39 6.22 -10.69 3.01 -14.42 6.18 -4.06 13.14 -4.06 16.12 -.47 15.30 -.47 17.94.39 11.41 1.30 13.57
            s 2.49 4.59 3.41 5.51
            q .92.92 3.57 3.50
            Z" />

</svg>