<svg  xmlns="http://www.w3.org/2000/svg" class="quilt-003" height="800" width="800">

    <style>
        .quilt-003 {
            --color0: #ffffff;
            --color1: #7a7fff;
            --color2: #0000ff;
            --color3: #00007d;
        }
    </style>

    <polygon
        points="0,0 800,0 800,800 0,800"
        style="fill:var(--color0);stroke-width:0"/>

    <polygon
        points="250,100 400,200 350,250 250,250"
        style="fill:var(--color1);stroke-width:0"/>
    <polygon
        points="550,100 550,250 450,250 400,200"
        style="fill:var(--color1);stroke-width:0"/>
    <polygon
        points="550,250 700,250 600,400 550,350"
        style="fill:var(--color1);stroke-width:0"/>
    <polygon
        points="600,400 700,550 550,550 550,450"
        style="fill:var(--color1);stroke-width:0"/>
    <polygon
        points="450,550 550,550 550,700 400,600"
        style="fill:var(--color1);stroke-width:0"/>
    <polygon
        points="250,550 350,550 400,600 250,700"
        style="fill:var(--color1);stroke-width:0"/>
    <polygon
        points="200,400 250,450 250,550 100,550"
        style="fill:var(--color1);stroke-width:0"/>
    <polygon
        points="100,250 250,250 250,350 200,400"
        style="fill:var(--color1);stroke-width:0"/>

    <line x1="50"  y1="0" x2="50"  y2="800" style="stroke:#88888888;stroke-width:2" />
    <line x1="100" y1="0" x2="100" y2="800" style="stroke:#88888888;stroke-width:2" />
    <line x1="150" y1="0" x2="150" y2="800" style="stroke:#88888888;stroke-width:2" />
    <line x1="200" y1="0" x2="200" y2="800" style="stroke:#88888888;stroke-width:2" />
    <line x1="250" y1="0" x2="250" y2="800" style="stroke:#88888888;stroke-width:2" />
    <line x1="300" y1="0" x2="300" y2="800" style="stroke:#88888888;stroke-width:2" />
    <line x1="350" y1="0" x2="350" y2="800" style="stroke:#88888888;stroke-width:2" />
    <line x1="400" y1="0" x2="400" y2="800" style="stroke:#88888888;stroke-width:2" />
    <line x1="450" y1="0" x2="450" y2="800" style="stroke:#88888888;stroke-width:2" />
    <line x1="500" y1="0" x2="500" y2="800" style="stroke:#88888888;stroke-width:2" />
    <line x1="550" y1="0" x2="550" y2="800" style="stroke:#88888888;stroke-width:2" />
    <line x1="600" y1="0" x2="600" y2="800" style="stroke:#88888888;stroke-width:2" />
    <line x1="650" y1="0" x2="650" y2="800" style="stroke:#88888888;stroke-width:2" />
    <line x1="700" y1="0" x2="700" y2="800" style="stroke:#88888888;stroke-width:2" />
    <line x1="750" y1="0" x2="750" y2="800" style="stroke:#88888888;stroke-width:2" />

    <line x1="0" y1="50"  x2="800" y2="50"  style="stroke:#88888888;stroke-width:2" />
    <line x1="0" y1="100" x2="800" y2="100" style="stroke:#88888888;stroke-width:2" />
    <line x1="0" y1="150" x2="800" y2="150" style="stroke:#88888888;stroke-width:2" />
    <line x1="0" y1="200" x2="800" y2="200" style="stroke:#88888888;stroke-width:2" />
    <line x1="0" y1="250" x2="800" y2="250" style="stroke:#88888888;stroke-width:2" />
    <line x1="0" y1="300" x2="800" y2="300" style="stroke:#88888888;stroke-width:2" />
    <line x1="0" y1="350" x2="800" y2="350" style="stroke:#88888888;stroke-width:2" />
    <line x1="0" y1="400" x2="800" y2="400" style="stroke:#88888888;stroke-width:2" />
    <line x1="0" y1="450" x2="800" y2="450" style="stroke:#88888888;stroke-width:2" />
    <line x1="0" y1="500" x2="800" y2="500" style="stroke:#88888888;stroke-width:2" />
    <line x1="0" y1="550" x2="800" y2="550" style="stroke:#88888888;stroke-width:2" />
    <line x1="0" y1="600" x2="800" y2="600" style="stroke:#88888888;stroke-width:2" />
    <line x1="0" y1="650" x2="800" y2="650" style="stroke:#88888888;stroke-width:2" />
    <line x1="0" y1="700" x2="800" y2="700" style="stroke:#88888888;stroke-width:2" />
    <line x1="0" y1="750" x2="800" y2="750" style="stroke:#88888888;stroke-width:2" />
    
    <line x1="200" y1="0" x2="400" y2="150" style="stroke:#88888888;stroke-width:2" />
    <line x1="600" y1="0" x2="400" y2="150" style="stroke:#88888888;stroke-width:2" />

    <line x1="0" y1="200" x2="150" y2="400" style="stroke:#88888888;stroke-width:2" />
    <line x1="0" y1="600" x2="150" y2="400" style="stroke:#88888888;stroke-width:2" />
    
    <line x1="200" y1="800" x2="400" y2="650" style="stroke:#88888888;stroke-width:2" />
    <line x1="600" y1="800" x2="400" y2="650" style="stroke:#88888888;stroke-width:2" />

    <line x1="800" y1="200" x2="650" y2="400" style="stroke:#88888888;stroke-width:2" />
    <line x1="800" y1="600" x2="650" y2="400" style="stroke:#88888888;stroke-width:2" />
</svg>